<?xml version="1.0" standalone="no"?>
<!DOCTYPE svg PUBLIC "-//W3C//DTD SVG 20010904//EN"
 "http://www.w3.org/TR/2001/REC-SVG-20010904/DTD/svg10.dtd">
<svg version="1.0" xmlns="http://www.w3.org/2000/svg"
 width="700.000000pt" height="700.000000pt" viewBox="0 0 700.000000 700.000000"
 preserveAspectRatio="xMidYMid meet">
<metadata>
Created by potrace 1.11, written by Peter Selinger 2001-2013
</metadata>
<g transform="translate(0.000000,700.000000) scale(0.100000,-0.100000)"
fill="#000000" stroke="none">
<path d="M0 3500 l0 -3500 3500 0 3500 0 0 3500 0 3500 -3500 0 -3500 0 0
-3500z m5270 2596 c377 -312 686 -570 687 -574 1 -4 -341 -290 -760 -635
l-762 -628 -3 320 -2 321 -498 0 c-736 0 -860 -13 -1057 -110 -302 -147 -451
-433 -406 -775 23 -170 80 -290 191 -405 122 -125 251 -205 675 -418 165 -83
321 -164 348 -181 81 -52 106 -122 71 -196 -32 -68 21 -65 -1031 -65 l-950 0
-84 56 c-246 165 -439 380 -563 630 -121 243 -176 483 -176 769 0 1060 731
1798 1910 1930 108 12 281 15 853 15 l717 0 0 321 0 321 78 -65 c42 -35 385
-319 762 -631z m-59 -1876 c27 -16 81 -54 121 -83 311 -231 525 -515 632 -837
118 -356 111 -715 -21 -1113 -135 -406 -385 -738 -723 -956 -234 -151 -521
-261 -840 -321 -263 -49 -334 -52 -1122 -57 l-748 -5 -2 -314 -3 -315 -755
625 c-415 344 -755 629 -755 634 0 8 1500 1252 1510 1252 2 0 6 -141 7 -312
l3 -313 605 1 c570 1 612 2 725 22 233 42 367 104 490 227 88 88 141 178 172
295 26 94 25 380 -1 465 -37 122 -94 214 -192 310 -121 120 -233 188 -639 389
-181 90 -349 178 -373 195 -76 56 -99 119 -67 181 32 62 -19 59 999 60 l929 0
48 -30z m249 -3190 c0 -5 -16 -10 -35 -10 l-35 0 0 -85 c0 -50 -4 -85 -10 -85
-6 0 -10 35 -10 85 l0 85 -40 0 c-22 0 -40 5 -40 10 0 6 35 10 85 10 50 0 85
-4 85 -10z m102 -50 c18 -33 35 -60 38 -60 3 0 20 27 38 60 49 88 62 81 62
-35 0 -114 -18 -128 -22 -17 l-3 77 -33 -57 c-18 -32 -38 -58 -45 -58 -6 0
-26 26 -44 58 l-32 57 -1 -77 c0 -45 -4 -78 -10 -78 -6 0 -10 38 -10 95 0 116
13 123 62 35z"/>
</g>
</svg>
