<?xml version="1.0" encoding="utf-8"?>
<!-- Generator: Adobe Illustrator 23.0.4, SVG Export Plug-In . SVG Version: 6.00 Build 0)  -->
<svg version="1.1" id="Layer_1" xmlns="http://www.w3.org/2000/svg" xmlns:xlink="http://www.w3.org/1999/xlink" x="0px" y="0px"
	 viewBox="0 0 120 100" style="enable-background:new 0 0 120 100;" xml:space="preserve">
<g>
	<path style="fill:#049239;" d="M34.7,72.9v-6.6h-2.7v-1h6.6v1h-2.7v6.6H34.7z"/>
	<path style="fill:#049239;" d="M44.9,65.3H46v4.9c0,1.8-1.3,2.8-3.3,2.8c-2,0-3.3-1-3.3-2.8v-4.9h1.1v4.8c0,1.3,0.9,1.9,2.2,1.9
		c1.3,0,2.2-0.6,2.2-1.9V65.3z"/>
	<path style="fill:#049239;" d="M53.2,72.9l-2.4-3.5l-1.8,2v1.5H48v-7.6H49V70l4-4.7h1.3l-2.8,3.2l3,4.4H53.2z"/>
	<path style="fill:#049239;" d="M55.6,72.9v-7.6h1.1v7.6H55.6z"/>
	<path style="fill:#049239;" d="M61,72.9v-1.2c0.4-0.4,1.6-1.4,2.3-2c1.2-1,1.8-1.6,1.8-2.4c0-0.6-0.3-1.2-1.4-1.2
		c-0.9,0-1.6,0.6-1.9,1.4l-0.9-0.5c0.4-1,1.4-1.9,2.8-1.9c1.7,0,2.5,0.9,2.5,2.2c0,1.1-0.7,1.9-1.9,2.8L62.1,72h4.2v1H61z"/>
	<path style="fill:#049239;" d="M67.3,69.2c0-2.3,1-4,3.1-4c2.1,0,3.1,1.6,3.1,4c0,2.2-1.1,3.9-3.1,3.9C68.4,73,67.3,71.4,67.3,69.2
		z M72.4,69.2c0-1.9-0.7-3-2-3c-1.3,0-2,1.1-2,3c0,1.7,0.7,2.9,2,2.9C71.8,72.1,72.4,70.9,72.4,69.2z"/>
	<path style="fill:#049239;" d="M74.5,72.9v-1.2c0.4-0.4,1.6-1.4,2.3-2c1.2-1,1.8-1.6,1.8-2.4c0-0.6-0.3-1.2-1.4-1.2
		c-0.9,0-1.6,0.6-1.9,1.4l-0.9-0.5c0.4-1,1.4-1.9,2.8-1.9c1.7,0,2.5,0.9,2.5,2.2c0,1.1-0.7,1.9-1.9,2.8L75.7,72h4.2v1H74.5z"/>
	<path style="fill:#049239;" d="M80.8,69.2c0-2.3,1-4,3.1-4c2.1,0,3.1,1.6,3.1,4c0,2.2-1.1,3.9-3.1,3.9C81.9,73,80.8,71.4,80.8,69.2
		z M86,69.2c0-1.9-0.7-3-2-3c-1.3,0-2,1.1-2,3c0,1.7,0.7,2.9,2,2.9C85.3,72.1,86,70.9,86,69.2z"/>
	<path style="fill:#512567;" d="M25.1,81.2v-4.8h0.7v4.2h2.7v0.6H25.1z"/>
	<path style="fill:#512567;" d="M29.3,81.2v-4.8H30v4.8H29.3z"/>
	<path style="fill:#512567;" d="M32.7,81.2l-1.9-4.8h0.8l1.6,4.1l1.6-4.1h0.7l-1.9,4.8H32.7z"/>
	<path style="fill:#512567;" d="M36.3,81.2v-4.8h3.4V77H37v1.4h2.2v0.6H37v1.5h2.9v0.6H36.3z"/>
	<path style="fill:#512567;" d="M44,81.2v-1c0-0.6-0.3-0.9-1-0.9h-1.5v1.9h-0.7v-4.8h2.4c0.8,0,1.5,0.5,1.5,1.4c0,0.6-0.2,1-0.8,1.2
		v0c0.6,0.2,0.8,0.6,0.8,1.1v1.2H44z M43,78.7c0.6,0,0.9-0.3,0.9-0.8c0-0.6-0.4-0.8-0.9-0.8h-1.5v1.7H43z"/>
	<path style="fill:#512567;" d="M45.9,81.2v-4.8h2.1c0.9,0,1.7,0.5,1.7,1.6c0,1.1-0.8,1.6-1.8,1.6h-1.4v1.6H45.9z M47.9,79
		c0.7,0,1.2-0.2,1.2-1c0-0.8-0.5-1-1.2-1h-1.2V79H47.9z"/>
	<path style="fill:#512567;" d="M52.9,81.3c-1.4,0-2.5-1-2.5-2.5c0-1.5,1.1-2.5,2.5-2.5c1.4,0,2.5,1,2.5,2.5
		C55.4,80.3,54.4,81.3,52.9,81.3z M52.9,80.7c1.2,0,1.8-0.8,1.8-1.9c0-1.1-0.7-1.9-1.8-1.9c-1.1,0-1.8,0.8-1.8,1.9
		C51.1,79.9,51.8,80.7,52.9,80.7z"/>
	<path style="fill:#512567;" d="M58.7,81.3c-1.4,0-2.5-1-2.5-2.5c0-1.5,1.1-2.5,2.5-2.5c1.4,0,2.5,1,2.5,2.5
		C61.2,80.3,60.1,81.3,58.7,81.3z M58.7,80.7c1.2,0,1.8-0.8,1.8-1.9c0-1.1-0.7-1.9-1.8-1.9c-1.1,0-1.8,0.8-1.8,1.9
		C56.9,79.9,57.5,80.7,58.7,80.7z"/>
	<path style="fill:#512567;" d="M62.3,81.2v-4.8H63v4.2h2.7v0.6H62.3z"/>
	<path style="fill:#512567;" d="M68.2,80.1c0.4,0.4,0.8,0.5,1.3,0.5c0.7,0,1.1-0.4,1.1-1c0-0.6-0.4-0.9-1-0.9c-0.4,0-0.7,0.1-1,0.3
		l-0.5-0.3v-2.4H71v0.7h-2.3v1.3c0.3-0.2,0.6-0.2,1-0.2c0.9,0,1.6,0.5,1.6,1.5c0,0.9-0.6,1.6-1.8,1.6c-0.6,0-1.2-0.2-1.7-0.7
		L68.2,80.1z"/>
	<path style="fill:#512567;" d="M71.9,79.6V79h1.7v0.7H71.9z"/>
	<path style="fill:#512567;" d="M74.8,81.2l2-4.2h-2.6v-0.6h3.3V77l-1.9,4.2H74.8z"/>
	<path style="fill:#512567;" d="M84.4,81.2v-3.9l-1.6,3h-0.7l-1.6-3v3.9h-0.7v-4.8h0.9l1.7,3.2l1.7-3.2h0.8v4.8H84.4z"/>
	<path style="fill:#512567;" d="M89.9,81.2l-0.4-1H87l-0.4,1h-0.7l1.9-4.8h0.9l1.9,4.8H89.9z M88.2,77.1l-1,2.5h2L88.2,77.1z"/>
	<path style="fill:#512567;" d="M92.3,81.2v-1.6l-1.9-3.2h0.8l1.5,2.5l1.5-2.5h0.8l-1.9,3.2v1.6H92.3z"/>
</g>
<g>
	<path id="XMLID_25_" style="fill:#049239;" d="M81.9,8.1L70.7,27.4l-6.4-11.1h-9.1l4.5,7.9l11,19l24.8-43l0,0
		C89.9,0.2,84.7,3.2,81.9,8.1z"/>
	<path id="XMLID_24_" style="fill:#FBC010;" d="M55.2,16.3l-6.3,11L37.7,7.9C34.9,3,29.7,0,24,0l0,0l24.9,43.1l10.7-18.8l-1.3-1.8
		L55.2,16.3z"/>
	<polygon id="XMLID_23_" style="fill:#512567;" points="55.2,16.3 57.8,25 58.3,26.7 59.8,24.2 	"/>
	<path id="XMLID_22_" style="fill:#FBC010;" d="M54.7,10.3c0,3.4-2.8,6.2-6.2,6.2c-3.4,0-6.2-2.8-6.2-6.2c0-3.4,2.8-6.2,6.2-6.2
		C52,4.1,54.7,6.9,54.7,10.3z"/>
	<path id="XMLID_21_" style="fill:#049239;" d="M75.9,12.7c0,3-2.4,5.4-5.4,5.4c-3,0-5.4-2.4-5.4-5.4c0-3,2.4-5.4,5.4-5.4
		C73.5,7.3,75.9,9.7,75.9,12.7z"/>
</g>
<path style="fill:#FBC010;" d="M41.9,96.5c0,1.3-0.8,2.1-2,2.4c-0.3,0.1-0.9,0.1-1.3,0.1l-2.9,0v1.1l-2.6-2.1l2.6-2.1v1.1l3.3,0
	c0.3,0,0.4-0.2,0.4-0.4c0-0.3-0.3-0.5-1.3-0.9c-1.5-0.7-2.7-1.2-2.7-2.9c0-1.3,0.9-2.2,2.3-2.3c0.3,0,0.8,0,1.1,0c0.7,0,2.6,0,2.6,0
	v2l-3.1-0.1c-0.3,0-0.4,0.2-0.4,0.3c0,0.3,0.2,0.4,1.1,0.8C40.9,94.4,41.9,94.9,41.9,96.5 M46.8,96.3c0,0.4-0.3,0.7-0.9,0.7
	c-0.6,0-0.9-0.3-0.9-0.7v-5.9h-2.5v6.1c0,1.3,1.1,2.6,3.4,2.6c2.2,0,3.4-1.3,3.4-2.6v-6.1h-2.5V96.3z M57,96.3
	c0,1.7-1.1,2.6-2.8,2.6H50v-8.5h4c1.8,0,2.7,1,2.7,2.3c0,0.7-0.3,1.3-0.9,1.7C56.6,94.8,57,95.4,57,96.3 M52.5,93.8l1.2,0
	c0.4,0,0.6-0.3,0.6-0.8c0-0.5-0.2-0.8-0.6-0.8h-1.2V93.8z M54.5,96.2c0-0.5-0.2-0.8-0.7-0.8h-1.3V97h1.3
	C54.3,97,54.5,96.7,54.5,96.2"/>
<path style="fill:#049239;" d="M65.4,90.4h2.5v6c0,1.4-1,2.7-3.1,2.7c-0.9,0-1.6-0.3-2.1-0.7c-0.5,0.4-1.2,0.7-2,0.7
	c-2.2,0-3.1-1.3-3.1-2.7v-6h2.5v6c0,0.2,0.1,0.5,0.7,0.5c0.6,0,0.7-0.3,0.7-0.5v-6H64v6c0,0.3,0.1,0.5,0.7,0.5
	c0.6,0,0.7-0.3,0.7-0.5V90.4z M78.6,93.8l0-3.3h-2.5V94c0,1.2,0.8,2.1,2.2,2.5v2.5h2.5v-2.5c1.4-0.4,2.2-1.3,2.2-2.5v-1.3
	c0-0.1,0.1-0.2,0.2-0.2l1.1,0v1.1l2.6-2.1l-2.6-2.1v1.1h-1.7c-1.5,0-2.1,0.8-2.1,2.1v1.3c0,0.3-0.2,0.7-1,0.7
	C78.8,94.4,78.6,94.1,78.6,93.8 M75.5,92.8v6.1H73v-2.5h-1.9l0,2.5h-2.5v-6.1c0-1.5,1.3-2.7,3.4-2.7C74.2,90.2,75.5,91.3,75.5,92.8
	 M73,94.5l0-1.5c0-0.4-0.3-0.7-0.9-0.7c-0.7,0-0.9,0.3-0.9,0.7v1.5H73z"/>
<path style="fill:#049239;" d="M82.4,98.4c0-0.1-0.1-0.1-0.1-0.1H82v0.4h0.1v-0.2h0.1c0.1,0,0.1,0,0.1,0.1v0.1h0.1v-0.1
	c0,0,0-0.1-0.1-0.1v0C82.4,98.5,82.4,98.5,82.4,98.4 M82.2,98.5h-0.1v-0.1h0.1C82.3,98.4,82.3,98.4,82.2,98.5
	C82.3,98.5,82.3,98.5,82.2,98.5 M82.2,98.1c-0.3,0-0.5,0.2-0.5,0.5c0,0.3,0.2,0.5,0.5,0.5c0.3,0,0.5-0.2,0.5-0.5
	C82.6,98.3,82.4,98.1,82.2,98.1 M82.2,98.9c-0.2,0-0.4-0.2-0.4-0.4c0-0.2,0.2-0.4,0.4-0.4c0.2,0,0.4,0.2,0.4,0.4
	C82.6,98.7,82.4,98.9,82.2,98.9"/>
<g>
	<path style="fill:#512567;" d="M4.9,55c0.2,0.4,0.3,0.8,0.3,1.3v0.9c0,0.8-0.2,1.4-0.7,1.9c-0.5,0.5-1.1,0.7-1.9,0.7H0V49h2.6
		c0.8,0,1.4,0.2,1.9,0.7c0.5,0.5,0.7,1.1,0.7,1.9v0.6c0,1-0.4,1.6-1.1,2C4.4,54.4,4.7,54.6,4.9,55z M1.6,50.5v2.9h0.7
		c0.4,0,0.7-0.1,0.9-0.3c0.2-0.2,0.3-0.5,0.3-0.9v-0.8c0-0.3-0.1-0.6-0.3-0.7c-0.2-0.2-0.4-0.3-0.7-0.3H1.6z M3.6,56.1
		c0-0.4-0.1-0.7-0.3-0.9C3.2,55.1,2.9,55,2.5,55H1.6v3.2h1c0.3,0,0.6-0.1,0.7-0.3c0.2-0.2,0.3-0.4,0.3-0.7V56.1z"/>
	<path style="fill:#512567;" d="M7.3,59.2c-0.5-0.5-0.7-1.1-0.7-1.9v-5.8c0-0.8,0.2-1.4,0.7-1.9c0.5-0.5,1.1-0.7,1.9-0.7
		c0.8,0,1.4,0.2,1.9,0.7c0.5,0.5,0.7,1.1,0.7,1.9v5.8c0,0.8-0.2,1.4-0.7,1.9c-0.5,0.5-1.1,0.7-1.9,0.7C8.4,59.9,7.8,59.6,7.3,59.2z
		 M9.9,58.1c0.2-0.2,0.3-0.4,0.3-0.8v-5.8c0-0.3-0.1-0.6-0.3-0.8c-0.2-0.2-0.4-0.3-0.7-0.3c-0.3,0-0.5,0.1-0.7,0.3
		c-0.2,0.2-0.3,0.4-0.3,0.8v5.8c0,0.3,0.1,0.6,0.3,0.8c0.2,0.2,0.4,0.3,0.7,0.3C9.5,58.3,9.7,58.3,9.9,58.1z"/>
	<path style="fill:#512567;" d="M13.4,49H15v9.2h2.9v1.5h-4.5V49z"/>
	<path style="fill:#512567;" d="M19.2,49h2.5c0.8,0,1.4,0.2,1.9,0.7c0.5,0.5,0.7,1.1,0.7,1.9v5.6c0,0.8-0.2,1.4-0.7,1.9
		c-0.5,0.5-1.1,0.7-1.9,0.7h-2.5V49z M21.6,58.2c0.3,0,0.6-0.1,0.7-0.3c0.2-0.2,0.3-0.4,0.3-0.7v-5.7c0-0.3-0.1-0.6-0.3-0.7
		c-0.2-0.2-0.4-0.3-0.7-0.3h-0.8v7.6H21.6z"/>
	<path style="fill:#512567;" d="M25.9,49h4.6v1.5h-3v3h2.4v1.5h-2.4v3.1h3v1.5h-4.6V49z"/>
	<path style="fill:#512567;" d="M35.5,59.7l-1.2-4.4h-0.8v4.4h-1.6V49h2.5c0.8,0,1.4,0.2,1.9,0.7c0.5,0.5,0.7,1.1,0.7,1.9v1.2
		c0,0.5-0.1,0.9-0.3,1.3c-0.2,0.4-0.5,0.7-0.8,0.9l1.4,4.8H35.5z M33.5,53.8h0.8c0.3,0,0.6-0.1,0.7-0.3c0.2-0.2,0.3-0.4,0.3-0.7
		v-1.2c0-0.3-0.1-0.6-0.3-0.7c-0.2-0.2-0.4-0.3-0.7-0.3h-0.8V53.8z"/>
	<path style="fill:#512567;" d="M38.4,59.7h-0.6v-1.6h1.6v1.5l-0.9,1.8h-0.8L38.4,59.7z"/>
	<path style="fill:#512567;" d="M47.3,55c0.2,0.4,0.3,0.8,0.3,1.3v0.9c0,0.8-0.2,1.4-0.7,1.9c-0.5,0.5-1.1,0.7-1.9,0.7h-2.7V49H45
		c0.8,0,1.4,0.2,1.9,0.7c0.5,0.5,0.7,1.1,0.7,1.9v0.6c0,1-0.4,1.6-1.1,2C46.8,54.4,47.1,54.6,47.3,55z M44,50.5v2.9h0.7
		c0.4,0,0.7-0.1,0.9-0.3c0.2-0.2,0.3-0.5,0.3-0.9v-0.8c0-0.3-0.1-0.6-0.3-0.7c-0.2-0.2-0.4-0.3-0.7-0.3H44z M46,56.1
		c0-0.4-0.1-0.7-0.3-0.9c-0.2-0.2-0.5-0.3-0.9-0.3H44v3.2h1c0.3,0,0.6-0.1,0.7-0.3c0.2-0.2,0.3-0.4,0.3-0.7V56.1z"/>
	<path style="fill:#512567;" d="M52.7,59.7l-1.2-4.4h-0.8v4.4h-1.6V49h2.5c0.8,0,1.4,0.2,1.9,0.7c0.5,0.5,0.7,1.1,0.7,1.9v1.2
		c0,0.5-0.1,0.9-0.3,1.3c-0.2,0.4-0.5,0.7-0.8,0.9l1.4,4.8H52.7z M50.7,53.8h0.8c0.3,0,0.6-0.1,0.7-0.3c0.2-0.2,0.3-0.4,0.3-0.7
		v-1.2c0-0.3-0.1-0.6-0.3-0.7c-0.2-0.2-0.4-0.3-0.7-0.3h-0.8V53.8z"/>
	<path style="fill:#512567;" d="M59,57.4h-1.7l-0.4,2.4h-1.6L57,49h2.2L61,59.7h-1.7L59,57.4z M58.7,55.8l-0.7-4.5l-0.7,4.5H58.7z"
		/>
	<path style="fill:#512567;" d="M67.1,49l-1.8,10.7h-2.2L61.4,49H63l1.2,8.4l1.2-8.4H67.1z"/>
	<path style="fill:#512567;" d="M68.3,49h4.6v1.5h-3v3h2.4v1.5H70v3.1h3v1.5h-4.6V49z"/>
	<path style="fill:#512567;" d="M77.1,59.7l-1.2-4.4h-0.8v4.4h-1.6V49H76c0.8,0,1.4,0.2,1.9,0.7c0.5,0.5,0.7,1.1,0.7,1.9v1.2
		c0,0.5-0.1,0.9-0.3,1.3c-0.2,0.4-0.5,0.7-0.8,0.9l1.4,4.8H77.1z M75.1,53.8h0.8c0.3,0,0.6-0.1,0.7-0.3c0.2-0.2,0.3-0.4,0.3-0.7
		v-1.2c0-0.3-0.1-0.6-0.3-0.7c-0.2-0.2-0.4-0.3-0.7-0.3h-0.8V53.8z"/>
	<path style="fill:#512567;" d="M80,59.7h-0.6v-1.6H81v1.5l-0.9,1.8h-0.8L80,59.7z"/>
	<path style="fill:#512567;" d="M89,55c0.2,0.4,0.3,0.8,0.3,1.3v0.9c0,0.8-0.2,1.4-0.7,1.9c-0.5,0.5-1.1,0.7-1.9,0.7h-2.7V49h2.6
		c0.8,0,1.4,0.2,1.9,0.7c0.5,0.5,0.7,1.1,0.7,1.9v0.6c0,1-0.4,1.6-1.1,2C88.5,54.4,88.8,54.6,89,55z M85.7,50.5v2.9h0.7
		c0.4,0,0.7-0.1,0.9-0.3c0.2-0.2,0.3-0.5,0.3-0.9v-0.8c0-0.3-0.1-0.6-0.3-0.7c-0.2-0.2-0.4-0.3-0.7-0.3H85.7z M87.7,56.1
		c0-0.4-0.1-0.7-0.3-0.9c-0.2-0.2-0.5-0.3-0.9-0.3h-0.9v3.2h1c0.3,0,0.6-0.1,0.7-0.3s0.3-0.4,0.3-0.7V56.1z"/>
	<path style="fill:#512567;" d="M90.8,49h4.6v1.5h-3v3h2.4v1.5h-2.4v3.1h3v1.5h-4.6V49z"/>
	<path style="fill:#512567;" d="M96.2,49h5.2v1.5h-1.8v9.2H98v-9.2h-1.8V49z"/>
	<path style="fill:#512567;" d="M102.3,49h5.2v1.5h-1.8v9.2h-1.6v-9.2h-1.8V49z"/>
	<path style="fill:#512567;" d="M108.7,49h4.6v1.5h-3v3h2.4v1.5h-2.4v3.1h3v1.5h-4.6V49z"/>
	<path style="fill:#512567;" d="M118.3,59.7l-1.2-4.4h-0.8v4.4h-1.6V49h2.5c0.8,0,1.4,0.2,1.9,0.7c0.5,0.5,0.7,1.1,0.7,1.9v1.2
		c0,0.5-0.1,0.9-0.3,1.3c-0.2,0.4-0.5,0.7-0.8,0.9l1.4,4.8H118.3z M116.3,53.8h0.8c0.3,0,0.6-0.1,0.7-0.3c0.2-0.2,0.3-0.4,0.3-0.7
		v-1.2c0-0.3-0.1-0.6-0.3-0.7c-0.2-0.2-0.4-0.3-0.7-0.3h-0.8V53.8z"/>
</g>
</svg>
