<?xml version="1.0" encoding="utf-8"?>
<!-- Generator: Adobe Illustrator 23.0.4, SVG Export Plug-In . SVG Version: 6.00 Build 0)  -->
<svg version="1.1" id="Layer_1" xmlns="http://www.w3.org/2000/svg" xmlns:xlink="http://www.w3.org/1999/xlink" x="0px" y="0px"
	 viewBox="0 0 460 382" style="enable-background:new 0 0 460 382;" xml:space="preserve">
<g>
	<path id="XMLID_25_" style="fill:#FFFFFF;" d="M314.7,30.9l-42.7,74l-24.6-42.5h-34.9l17.4,30.2l42,72.7L367,0.7l0,0
		C345.4,0.7,325.5,12.2,314.7,30.9z"/>
	<path id="XMLID_24_" style="fill:#FBC010;" d="M212.5,62.5l-24.1,42.1l-42.9-74.3C134.7,11.6,114.7,0,93,0l0,0l95.4,165.2
		l41.2-72.1l-5.1-7L212.5,62.5z"/>
	<polygon id="XMLID_23_" style="fill:#512567;" points="212.5,62.4 222.3,95.9 224.2,102.5 229.9,92.6 	"/>
	<path id="XMLID_22_" style="fill:#FBC010;" d="M210.6,39.5c0,13.1-10.6,23.7-23.7,23.7c-13.1,0-23.7-10.6-23.7-23.7
		c0-13.1,10.6-23.7,23.7-23.7C200,15.9,210.6,26.5,210.6,39.5z"/>
	<path id="XMLID_21_" style="fill:#FFFFFF;" d="M291.8,48.8c0,11.5-9.3,20.8-20.8,20.8c-11.5,0-20.8-9.3-20.8-20.8
		c0-11.5,9.3-20.8,20.8-20.8C282.5,28,291.8,37.3,291.8,48.8z"/>
</g>
<path style="fill:#FBC010;" d="M160.6,368.4c0,5.1-2.9,8.1-7.6,9.1c-1.2,0.3-3.4,0.3-4.9,0.3l-11.3-0.1v4.3l-9.9-8.2l9.9-8.2v4.3
	l12.7,0.1c1.2,0,1.7-0.7,1.7-1.4c0-1.3-1.2-1.7-4.8-3.4c-5.7-2.7-10.2-4.7-10.2-11c0-4.9,3.5-8.3,8.7-8.9c1.1-0.1,3-0.2,4.2-0.2
	c2.6,0,9.8,0.2,9.8,0.2v7.9l-11.9-0.2c-1,0-1.5,0.6-1.5,1.3c0,1,0.8,1.4,4.2,3C156.8,360.6,160.6,362.3,160.6,368.4 M179.2,367.8
	c0,1.5-1.2,2.6-3.6,2.6c-2.5,0-3.6-1.2-3.6-2.6v-22.6h-9.6v23.3c0,5.2,4.3,10,13.2,10c8.5,0,13.2-4.8,13.2-10v-23.3h-9.6V367.8z
	 M218.6,367.9c0,6.5-4.3,9.9-10.8,9.9h-16v-32.7h15.5c6.9,0,10.4,3.9,10.4,8.9c0,2.6-1.2,4.8-3.6,6.4
	C216.9,362.2,218.6,364.5,218.6,367.9 M201.3,358.2l4.4,0c1.7,0,2.4-1.2,2.4-2.9c0-1.8-0.8-2.9-2.4-2.9h-4.4V358.2z M208.9,367.5
	c0-2-0.9-3.1-2.7-3.1h-4.9v6.2h4.9C208,370.6,208.9,369.4,208.9,367.5"/>
<path style="fill:#FFFFFF;" d="M250.7,345.2h9.5v23c0,5.3-3.8,10.2-11.8,10.2c-3.4,0-6.1-1-8-2.5c-1.9,1.5-4.5,2.5-7.7,2.5
	c-8.5,0-12-4.8-12-10.2v-23h9.5V368c0,0.9,0.5,2.1,2.7,2.1c2.2,0,2.7-1.1,2.7-2.1v-22.8h9.5V368c0,1,0.5,2.1,2.7,2.1
	c2.2,0,2.7-1.1,2.7-2.1V345.2z M301.3,358l0-12.8h-9.5V359c0,4.6,3.1,8,8.4,9.4v9.4h9.7v-9.4c5.3-1.4,8.3-4.9,8.3-9.4v-5.1
	c0-0.5,0.2-0.8,0.8-0.8l4.2,0v4.1l9.9-8.2l-9.9-8.2v4.1h-6.6c-5.6,0-7.9,3.2-7.9,7.9v5.1c0,1.2-0.8,2.7-3.7,2.7
	C302.1,360.7,301.3,359.3,301.3,358 M289.4,354.5v23.3h-9.5v-9.5h-7.2l0,9.5h-9.5v-23.3c0-5.9,4.8-10.3,13.1-10.3
	C284.6,344.3,289.4,348.6,289.4,354.5 M279.9,360.9l0-5.8c0-1.6-1.1-2.7-3.6-2.7c-2.5,0-3.6,1.1-3.6,2.7v5.8H279.9z"/>
<path style="fill:#FFFFFF;" d="M315.8,375.9c0-0.3-0.2-0.5-0.5-0.5h-0.9v1.7h0.3v-0.6h0.4c0.2,0,0.3,0.1,0.3,0.3v0.3h0.3v-0.4
	c0-0.2-0.1-0.3-0.3-0.3v0C315.7,376.2,315.8,376.1,315.8,375.9 M315.2,376.2h-0.4v-0.5h0.4c0.2,0,0.3,0.1,0.3,0.3
	C315.5,376.1,315.3,376.2,315.2,376.2 M315.1,374.5c-1,0-1.7,0.8-1.7,1.7c0,1,0.8,1.7,1.7,1.7c1,0,1.7-0.8,1.7-1.7
	C316.8,375.3,316,374.5,315.1,374.5 M315.1,377.7c-0.8,0-1.4-0.7-1.4-1.4c0-0.8,0.6-1.4,1.4-1.4c0.8,0,1.4,0.7,1.4,1.4
	C316.5,377.1,315.8,377.7,315.1,377.7"/>
<g>
	<path style="fill:#512567;" d="M18.9,210c0.8,1.4,1.2,3,1.2,5v3.3c0,3-0.9,5.3-2.6,7.1c-1.8,1.8-4.1,2.7-7.1,2.7H0v-41.1h9.9
		c3,0,5.3,0.9,7.1,2.7c1.8,1.8,2.6,4.2,2.6,7.1v2.2c0,3.7-1.4,6.3-4.2,7.9C16.9,207.6,18.1,208.7,18.9,210z M6.2,193v11.1H9
		c1.5,0,2.6-0.4,3.3-1.1c0.7-0.7,1.1-1.8,1.1-3.3v-2.9c0-1.2-0.3-2.2-1-2.8c-0.7-0.7-1.6-1-2.8-1H6.2z M13.9,214.4
		c0-1.5-0.4-2.6-1.1-3.3c-0.7-0.7-1.8-1.1-3.3-1.1H6.2v12.3h3.9c1.2,0,2.1-0.3,2.8-1c0.7-0.7,1-1.6,1-2.8V214.4z"/>
	<path style="fill:#512567;" d="M28,226c-1.8-1.8-2.8-4.2-2.8-7.2v-22.4c0-3,0.9-5.4,2.8-7.2c1.8-1.8,4.2-2.7,7.2-2.7
		c3,0,5.4,0.9,7.2,2.7c1.8,1.8,2.8,4.2,2.8,7.2v22.4c0,3-0.9,5.4-2.8,7.2c-1.8,1.8-4.2,2.7-7.2,2.7C32.2,228.7,29.8,227.8,28,226z
		 M37.9,221.8c0.7-0.7,1-1.7,1-3v-22.4c0-1.3-0.3-2.3-1-3c-0.7-0.7-1.6-1.1-2.8-1.1c-1.2,0-2.1,0.4-2.8,1.1c-0.7,0.7-1,1.7-1,3v22.4
		c0,1.3,0.3,2.3,1,3c0.7,0.7,1.6,1.1,2.8,1.1C36.4,222.9,37.3,222.5,37.9,221.8z"/>
	<path style="fill:#512567;" d="M51.4,187.1h6.2v35.2h11.1v5.9H51.4V187.1z"/>
	<path style="fill:#512567;" d="M73.5,187.1h9.7c3,0,5.3,0.9,7.1,2.7c1.8,1.8,2.6,4.2,2.6,7.1v21.5c0,3-0.9,5.3-2.6,7.1
		c-1.8,1.8-4.1,2.7-7.1,2.7h-9.7V187.1z M83,222.3c1.2,0,2.1-0.3,2.8-1c0.7-0.7,1-1.6,1-2.8v-21.7c0-1.2-0.3-2.2-1-2.8
		c-0.7-0.7-1.6-1-2.8-1h-3.2v29.3H83z"/>
	<path style="fill:#512567;" d="M99.2,187.1h17.7v5.9h-11.4v11.4h9.1v5.9h-9.1v12h11.4v5.9H99.2V187.1z"/>
	<path style="fill:#512567;" d="M136.1,228.2l-4.5-16.9h-3.2v16.9h-6.2v-41.1h9.7c3,0,5.3,0.9,7.1,2.7c1.8,1.8,2.6,4.2,2.6,7.1v4.5
		c0,1.9-0.4,3.5-1.1,5c-0.7,1.4-1.8,2.6-3.2,3.4l5.2,18.4H136.1z M128.3,205.3h3.2c1.2,0,2.1-0.3,2.8-1c0.7-0.7,1-1.6,1-2.8v-4.8
		c0-1.2-0.3-2.2-1-2.8c-0.7-0.7-1.6-1-2.8-1h-3.2V205.3z"/>
	<path style="fill:#512567;" d="M147,228.2h-2.2V222h6.2v5.6l-3.3,6.7h-2.9L147,228.2z"/>
	<path style="fill:#512567;" d="M181.4,210c0.8,1.4,1.2,3,1.2,5v3.3c0,3-0.9,5.3-2.6,7.1c-1.8,1.8-4.1,2.7-7.1,2.7h-10.4v-41.1h9.9
		c3,0,5.3,0.9,7.1,2.7c1.8,1.8,2.6,4.2,2.6,7.1v2.2c0,3.7-1.4,6.3-4.2,7.9C179.4,207.6,180.6,208.7,181.4,210z M168.7,193v11.1h2.8
		c1.5,0,2.6-0.4,3.3-1.1c0.7-0.7,1.1-1.8,1.1-3.3v-2.9c0-1.2-0.3-2.2-1-2.8c-0.7-0.7-1.6-1-2.8-1H168.7z M176.4,214.4
		c0-1.5-0.4-2.6-1.1-3.3c-0.7-0.7-1.8-1.1-3.3-1.1h-3.3v12.3h3.9c1.2,0,2.1-0.3,2.8-1c0.7-0.7,1-1.6,1-2.8V214.4z"/>
	<path style="fill:#512567;" d="M202.2,228.2l-4.5-16.9h-3.2v16.9h-6.2v-41.1h9.7c3,0,5.3,0.9,7.1,2.7c1.8,1.8,2.6,4.2,2.6,7.1v4.5
		c0,1.9-0.4,3.5-1.1,5c-0.7,1.4-1.8,2.6-3.2,3.4l5.2,18.4H202.2z M194.5,205.3h3.2c1.2,0,2.1-0.3,2.8-1c0.7-0.7,1-1.6,1-2.8v-4.8
		c0-1.2-0.3-2.2-1-2.8c-0.7-0.7-1.6-1-2.8-1h-3.2V205.3z"/>
	<path style="fill:#512567;" d="M226,219.1h-6.7l-1.3,9.1h-6.2l6.8-41.1h8.3l6.8,41.1h-6.3L226,219.1z M225.2,213.1l-2.5-17.2
		l-2.5,17.2H225.2z"/>
	<path style="fill:#512567;" d="M257.2,187.1l-6.8,41.1H242l-6.8-41.1h6.3l4.7,32.3l4.7-32.3H257.2z"/>
	<path style="fill:#512567;" d="M262,187.1h17.7v5.9h-11.4v11.4h9.1v5.9h-9.1v12h11.4v5.9H262V187.1z"/>
	<path style="fill:#512567;" d="M295.6,228.2l-4.5-16.9h-3.2v16.9h-6.2v-41.1h9.7c3,0,5.3,0.9,7.1,2.7c1.8,1.8,2.6,4.2,2.6,7.1v4.5
		c0,1.9-0.4,3.5-1.1,5c-0.7,1.4-1.8,2.6-3.2,3.4l5.2,18.4H295.6z M287.8,205.3h3.2c1.2,0,2.1-0.3,2.8-1c0.7-0.7,1-1.6,1-2.8v-4.8
		c0-1.2-0.3-2.2-1-2.8c-0.7-0.7-1.6-1-2.8-1h-3.2V205.3z"/>
	<path style="fill:#512567;" d="M306.5,228.2h-2.2V222h6.2v5.6l-3.3,6.7h-2.9L306.5,228.2z"/>
	<path style="fill:#512567;" d="M341.2,210c0.8,1.4,1.2,3,1.2,5v3.3c0,3-0.9,5.3-2.6,7.1c-1.8,1.8-4.1,2.7-7.1,2.7h-10.4v-41.1h9.9
		c3,0,5.3,0.9,7.1,2.7c1.8,1.8,2.6,4.2,2.6,7.1v2.2c0,3.7-1.4,6.3-4.2,7.9C339.2,207.6,340.4,208.7,341.2,210z M328.5,193v11.1h2.8
		c1.5,0,2.6-0.4,3.3-1.1c0.7-0.7,1.1-1.8,1.1-3.3v-2.9c0-1.2-0.3-2.2-1-2.8c-0.7-0.7-1.6-1-2.8-1H328.5z M336.1,214.4
		c0-1.5-0.4-2.6-1.1-3.3c-0.7-0.7-1.8-1.1-3.3-1.1h-3.3v12.3h3.9c1.2,0,2.2-0.3,2.8-1s1-1.6,1-2.8V214.4z"/>
	<path style="fill:#512567;" d="M348,187.1h17.7v5.9h-11.4v11.4h9.1v5.9h-9.1v12h11.4v5.9H348V187.1z"/>
	<path style="fill:#512567;" d="M368.9,187.1h19.8v5.9h-6.8v35.2h-6.2V193h-6.8V187.1z"/>
	<path style="fill:#512567;" d="M392.1,187.1h19.8v5.9h-6.8v35.2h-6.2V193h-6.8V187.1z"/>
	<path style="fill:#512567;" d="M416.7,187.1h17.7v5.9h-11.4v11.4h9.1v5.9h-9.1v12h11.4v5.9h-17.7V187.1z"/>
	<path style="fill:#512567;" d="M453.5,228.2l-4.5-16.9h-3.2v16.9h-6.2v-41.1h9.7c3,0,5.3,0.9,7.1,2.7c1.8,1.8,2.6,4.2,2.6,7.1v4.5
		c0,1.9-0.4,3.5-1.1,5c-0.7,1.4-1.8,2.6-3.2,3.4l5.2,18.4H453.5z M445.8,205.3h3.2c1.2,0,2.1-0.3,2.8-1c0.7-0.7,1-1.6,1-2.8v-4.8
		c0-1.2-0.3-2.2-1-2.8c-0.7-0.7-1.6-1-2.8-1h-3.2V205.3z"/>
</g>
<g>
	<path style="fill:#FFFFFF;" d="M134.9,278.8v-25.3h-10.5v-3.9h25.2v3.9h-10.5v25.3H134.9z"/>
	<path style="fill:#FFFFFF;" d="M174.3,249.7h4.1v18.9c0,6.9-5,10.8-12.5,10.8c-7.5,0-12.5-3.9-12.5-10.8v-18.8h4.1v18.2
		c0,5,3.3,7.5,8.4,7.5c5.1,0,8.4-2.5,8.4-7.5V249.7z"/>
	<path style="fill:#FFFFFF;" d="M205.9,278.8l-9.2-13.5l-6.8,7.8v5.6h-4v-29.2h4v17.9l15.4-17.9h5.1l-10.8,12.4l11.5,16.7H205.9z"/>
	<path style="fill:#FFFFFF;" d="M215.3,278.8v-29.2h4.2v29.2H215.3z"/>
	<path style="fill:#FFFFFF;" d="M235.9,278.8v-4.5c1.5-1.6,6-5.5,8.9-7.7c4.8-3.9,7-6,7-9.1c0-2.2-1.3-4.6-5.5-4.6
		c-3.6,0-6,2.2-7.3,5.2l-3.4-1.8c1.7-3.9,5.4-7.2,10.7-7.2c6.5,0,9.6,3.5,9.6,8.2c0,4-2.7,7.1-7.1,10.7l-8.5,6.9h16.1v3.8H235.9z"/>
	<path style="fill:#FFFFFF;" d="M260,264.4c0-8.9,4-15.2,11.9-15.2c7.9,0,11.9,6.3,11.9,15.2c0,8.6-4.2,14.8-11.9,14.8
		C264.1,279.2,260,272.9,260,264.4z M279.6,264.4c0-7.3-2.7-11.5-7.7-11.5c-5,0-7.7,4.2-7.7,11.5c0,6.5,2.5,11.1,7.7,11.1
		C277,275.5,279.6,270.8,279.6,264.4z"/>
	<path style="fill:#FFFFFF;" d="M287.7,278.8v-4.5c1.5-1.6,6-5.5,8.9-7.7c4.8-3.9,7-6,7-9.1c0-2.2-1.3-4.6-5.5-4.6
		c-3.6,0-6,2.2-7.3,5.2l-3.4-1.8c1.7-3.9,5.4-7.2,10.7-7.2c6.5,0,9.6,3.5,9.6,8.2c0,4-2.7,7.1-7.1,10.7L292,275h16.1v3.8H287.7z"/>
	<path style="fill:#FFFFFF;" d="M311.8,264.4c0-8.9,4-15.2,11.9-15.2c7.9,0,11.9,6.3,11.9,15.2c0,8.6-4.2,14.8-11.9,14.8
		C316,279.2,311.8,272.9,311.8,264.4z M331.5,264.4c0-7.3-2.7-11.5-7.7-11.5c-5,0-7.7,4.2-7.7,11.5c0,6.5,2.5,11.1,7.7,11.1
		C328.9,275.5,331.5,270.8,331.5,264.4z"/>
</g>
<g>
	<path style="fill:#512567;" d="M96.5,310.5V292h2.6v16h10.3v2.5H96.5z"/>
	<path style="fill:#512567;" d="M112.4,310.5V292h2.6v18.5H112.4z"/>
	<path style="fill:#512567;" d="M125.5,310.5L118,292h2.9l6.2,15.9l6.2-15.9h2.8l-7.5,18.5H125.5z"/>
	<path style="fill:#512567;" d="M139.1,310.5V292h13.2v2.5h-10.5v5.3h8.3v2.5h-8.3v5.8h11v2.5H139.1z"/>
	<path style="fill:#512567;" d="M168.5,310.5v-3.9c0-2.2-1.3-3.4-3.7-3.4h-5.6v7.3h-2.6V292h9.1c3.1,0.1,5.7,2,5.7,5.2
		c0,2.1-0.9,3.7-3.1,4.7v0.1c2.4,0.6,3,2.2,3,4.2v4.4H168.5z M164.9,300.8c2.1,0,3.6-1,3.6-3.2c0-2.2-1.5-3.2-3.6-3.2h-5.8v6.4
		H164.9z"/>
	<path style="fill:#512567;" d="M176.1,310.5V292h8.2c3.4,0,6.5,1.8,6.5,6.1c0,4.1-3.1,6.2-6.7,6.2h-5.3v6.2H176.1z M183.5,301.9
		c2.6,0,4.5-0.7,4.5-3.8c0-3-2-3.7-4.5-3.7h-4.8v7.5H183.5z"/>
	<path style="fill:#512567;" d="M202.8,310.9c-5.5,0-9.6-3.9-9.6-9.7c0-5.7,4-9.6,9.6-9.6c5.5,0,9.6,3.9,9.6,9.6
		C212.4,307,208.3,310.9,202.8,310.9z M202.8,308.5c4.5,0,6.9-3.1,6.9-7.2c0-4.2-2.7-7.1-6.9-7.1c-4.2,0-6.9,3-6.9,7.1
		C195.9,305.4,198.3,308.5,202.8,308.5z"/>
	<path style="fill:#512567;" d="M224.9,310.9c-5.5,0-9.6-3.9-9.6-9.7c0-5.7,4-9.6,9.6-9.6c5.5,0,9.6,3.9,9.6,9.6
		C234.4,307,230.4,310.9,224.9,310.9z M224.9,308.5c4.5,0,6.9-3.1,6.9-7.2c0-4.2-2.7-7.1-6.9-7.1c-4.2,0-6.9,3-6.9,7.1
		C217.9,305.4,220.4,308.5,224.9,308.5z"/>
	<path style="fill:#512567;" d="M238.7,310.5V292h2.6v16h10.3v2.5H238.7z"/>
	<path style="fill:#512567;" d="M263.9,298.8c0.7-0.5,1.9-0.9,3.1-0.9c4.1,0,6.3,2.8,6.3,6.3c0,3.6-2.6,6.6-6.8,6.6
		c-4.2,0-6.7-2.9-6.7-6.5c0-2.6,0.8-4.4,2.1-6.5c0.9-1.4,2.7-3.8,4.3-5.7h3L263.9,298.8z M266.5,300.1c-2.7,0-4.2,2-4.2,4.1
		c0,2.5,1.6,4.2,4.3,4.2c2.5,0,4.3-1.7,4.3-4.2C270.8,302.1,269.4,300.1,266.5,300.1z"/>
	<path style="fill:#512567;" d="M275.7,304.4v-2.5h6.5v2.5H275.7z"/>
	<path style="fill:#512567;" d="M286.6,310.5l7.5-16.1H284V292h12.6v2.5l-7.5,16H286.6z"/>
	<path style="fill:#512567;" d="M323.6,310.5v-14.8l-6.2,11.4H315l-6.1-11.3v14.8h-2.6V292h3.4l6.6,12.3L323,292h3.2v18.5H323.6z"/>
	<path style="fill:#512567;" d="M344.3,310.5l-1.5-3.9h-9.4l-1.5,3.9h-2.7l7.4-18.5h3.3l7.4,18.5H344.3z M338.1,294.6l-3.7,9.6h7.5
		L338.1,294.6z"/>
	<path style="fill:#512567;" d="M353.5,310.5v-6.1l-7.3-12.4h3.1l5.6,9.7l5.6-9.7h3l-7.3,12.4v6.1H353.5z"/>
</g>
</svg>
